<svg xmlns="http://www.w3.org/2000/svg" width="100" height="100" viewBox="0 0 100 100">
  <!-- USF Branded Parking Icon -->
  <circle cx="50" cy="50" r="45" fill="#006747" /> <!-- USF Green -->
  <rect x="30" y="20" width="40" height="60" rx="5" ry="5" fill="#CFC493" /> <!-- USF Gold -->
  <text x="50" y="60" font-family="Arial" font-size="40" text-anchor="middle" fill="#006747" font-weight="bold">P</text>
  
  <!-- Car icon -->
  <g transform="translate(35, 80) scale(0.03)">
    <path d="M499.99 176h-59.87l-16.64-41.6C406.38 91.63 365.57 64 319.5 64h-127c-46.06 0-86.88 27.63-103.99 70.4L71.87 176H12.01C4.2 176-1.53 183.34.37 190.91l6 24C7.7 220.25 12.5 224 18.01 224h20.07C24.65 235.73 16 252.78 16 272v48c0 16.12 6.16 30.67 16 41.93V416c0 17.67 14.33 32 32 32h32c17.67 0 32-14.33 32-32v-32h256v32c0 17.67 14.33 32 32 32h32c17.67 0 32-14.33 32-32v-54.07c9.84-11.25 16-25.8 16-41.93v-48c0-19.22-8.65-36.27-22.07-48H494c5.51 0 10.31-3.75 11.64-9.09l6-24c1.89-7.57-3.84-14.91-11.65-14.91zm-352.06-17.83c7.29-18.22 24.94-30.17 44.57-30.17h127c19.63 0 37.28 11.95 44.57 30.17L384 208H128l19.93-49.83zM96 319.8c-19.2 0-32-12.76-32-31.9S76.8 256 96 256s48 28.71 48 47.85-28.8 15.95-48 15.95zm320 0c-19.2 0-48 3.19-48-15.95S396.8 256 416 256s32 12.76 32 31.9-12.8 31.9-32 31.9z" fill="#006747"/>
  </g>
  
  <!-- USF Bull Horn -->
  <g transform="translate(10, 10) scale(0.07)">
    <path d="M294.1 256L167 129c-4.7-4.7-4.7-12.3 0-17l5.7-5.7c4.7-4.7 12.3-4.7 17 0l128 128c4.7 4.7 4.7 12.3 0 17l-128 128c-4.7 4.7-12.3 4.7-17 0l-5.7-5.7c-4.7-4.7-4.7-12.3 0-17L294.1 256zm201.8 0L369 129c-4.7-4.7-4.7-12.3 0-17l5.7-5.7c4.7-4.7 12.3-4.7 17 0l128 128c4.7 4.7 4.7 12.3 0 17l-128 128c-4.7 4.7-12.3 4.7-17 0l-5.7-5.7c-4.7-4.7-4.7-12.3 0-17L495.9 256z" fill="#CFC493"/>
  </g>
  
  <!-- USF Text -->
  <text x="50" y="15" font-family="Arial" font-size="10" text-anchor="middle" fill="#CFC493" font-weight="bold">USF</text>
</svg>
